# Blender 4.5.0
# www.blender.org
o Pamats_03
v 0.137997 0.900885 0.137997
v -0.137997 0.900885 0.137997
v 0.137997 0.900885 -0.137997
v -0.137997 0.900885 -0.137997
v 0.000000 1.036435 0.000000
v -0.274373 0.000000 -0.274373
v 0.274373 0.000000 -0.274373
v 0.274373 0.000000 0.274373
v -0.274373 0.000000 0.274373
vn -0.7008 0.7134 -0.0000
vn -0.0000 0.1497 0.9887
vn 0.9887 0.1497 -0.0000
vn 0.7008 0.7134 -0.0000
vn -0.0000 0.7134 0.7008
vn -0.0000 0.7134 -0.7008
vn -0.0000 0.1497 -0.9887
vn -0.9887 0.1497 -0.0000
vn -0.0000 -1.0000 -0.0000
vt 0.513689 0.250000
vt 0.513689 0.000000
vt 0.513689 0.500000
vt 0.406068 0.750000
vt 0.513689 0.750000
vt 0.513689 1.000000
vt 0.406068 1.000000
vt 0.406068 0.500000
vt 0.513689 0.500000
vt 0.406068 0.250000
vt 0.406068 0.000000
s 0
f 4/1/1 2/2/1 5/3/1
f 8/4/2 1/5/2 2/6/2 9/7/2
f 1/5/3 8/4/3 7/8/3 3/9/3
f 1/5/4 3/9/4 5/3/4
f 5/3/5 2/2/5 1/5/5
f 5/3/6 3/9/6 4/1/6
f 4/1/7 3/9/7 7/8/7 6/10/7
f 4/1/8 6/10/8 9/11/8 2/2/8
f 8/4/9 9/11/9 6/10/9 7/8/9
