# Blender 4.5.0
# www.blender.org
o Pamats_01
v -0.310179 0.188623 0.310179
v -0.310179 0.188623 -0.310179
v 0.310179 0.188623 0.310179
v 0.310179 0.188623 -0.310179
v -0.310179 0.000000 -0.310179
v -0.310179 0.000000 0.310179
v 0.310179 0.000000 -0.310179
v 0.310179 0.000000 0.310179
v -0.208523 0.705888 -0.208523
v 0.208523 0.705888 -0.208523
v 0.208523 0.705888 0.208523
v -0.208523 0.705888 0.208523
v -0.274373 0.270888 -0.274373
v 0.274373 0.270888 -0.274373
v 0.274373 0.270888 0.274373
v -0.274373 0.270888 0.274373
v -0.150753 0.705888 0.150753
v -0.150753 0.705888 -0.150753
v 0.150753 0.705888 -0.150753
v 0.150753 0.705888 0.150753
v -0.150752 0.458624 0.150752
v -0.150752 0.458624 -0.150753
v 0.150753 0.458624 -0.150753
v 0.150753 0.458624 0.150752
vn -0.0000 -0.0000 1.0000
vn -0.0000 -0.0000 -1.0000
vn -1.0000 -0.0000 -0.0000
vn 1.0000 -0.0000 -0.0000
vn 0.9169 0.3991 -0.0000
vn -0.0000 0.3991 -0.9169
vn -0.9169 0.3991 -0.0000
vn -0.9887 0.1497 -0.0000
vn -0.0000 0.1497 -0.9887
vn 0.9887 0.1497 -0.0000
vn -0.0000 0.1497 0.9887
vn -0.0000 0.3991 0.9169
vn -0.0000 1.0000 -0.0000
vn -0.0000 -1.0000 -0.0000
vt 0.375000 0.750000
vt 0.375000 1.000000
vt 0.375000 0.250000
vt 0.375000 0.500000
vt 0.375000 0.000000
vt 0.406068 0.500000
vt 0.406068 0.750000
vt 0.406068 0.250000
vt 0.406068 0.000000
vt 0.458034 0.000000
vt 0.458034 0.250000
vt 0.458034 0.500000
vt 0.458034 0.750000
vt 0.458034 1.000000
vt 0.406068 1.000000
s 0
f 3/1/1 1/2/1 6/2/1 8/1/1
f 2/3/2 4/4/2 7/4/2 5/3/2
f 1/5/3 2/3/3 5/3/3 6/5/3
f 4/4/4 3/1/4 8/1/4 7/4/4
f 4/4/5 14/6/5 15/7/5 3/1/5
f 2/3/6 13/8/6 14/6/6 4/4/6
f 1/5/7 16/9/7 13/8/7 2/3/7
f 16/9/8 12/10/8 9/11/8 13/8/8
f 13/8/9 9/11/9 10/12/9 14/6/9
f 14/6/10 10/12/10 11/13/10 15/7/10
f 15/7/11 11/13/11 12/14/11 16/15/11
f 3/1/12 15/7/12 16/15/12 1/2/12
f 11/13/13 10/12/13 19/12/13 20/13/13
f 17/14/2 20/13/2 24/13/2 21/14/2
f 9/11/13 12/10/13 17/10/13 18/11/13
f 12/14/13 11/13/13 20/13/13 17/14/13
f 10/12/13 9/11/13 18/11/13 19/12/13
f 21/14/13 24/13/13 23/12/13 22/11/13
f 19/12/1 18/11/1 22/11/1 23/12/1
f 20/13/3 19/12/3 23/12/3 24/13/3
f 18/11/4 17/10/4 21/10/4 22/11/4
f 5/3/14 7/4/14 8/1/14 6/2/14
