# Blender 4.5.0
# www.blender.org
o Vidus_01
v 0.062080 -0.062077 0.333413
v 0.333414 -0.062077 0.062077
v 0.062077 -0.062077 0.062077
v 0.062080 0.062077 0.333413
v 0.333414 0.062077 0.062077
v 0.062077 0.062077 0.062077
v -0.062073 -0.062077 0.333415
v -0.062076 -0.062077 0.062077
v -0.333414 -0.062077 0.062077
v -0.062073 0.062077 0.333415
v -0.062076 0.062077 0.062077
v -0.333414 0.062077 0.062077
v 0.333414 -0.062077 -0.062077
v 0.062076 -0.062077 -0.062077
v 0.062073 -0.062077 -0.333415
v 0.333414 0.062077 -0.062077
v 0.062076 0.062077 -0.062077
v 0.062073 0.062077 -0.333415
v -0.062077 -0.062077 -0.062077
v -0.333414 -0.062077 -0.062077
v -0.062080 -0.062077 -0.333413
v -0.062077 0.062077 -0.062077
v -0.333414 0.062077 -0.062077
v -0.062080 0.062077 -0.333413
v -0.000000 0.062077 -0.000000
v 0.000000 -0.062077 -0.000000
vn -1.0000 -0.0000 -0.0000
vn -0.0000 -0.0000 -1.0000
vn 1.0000 -0.0000 -0.0000
vn -0.0000 -0.0000 1.0000
vn -0.0000 -1.0000 -0.0000
vn -0.0000 1.0000 -0.0000
vt 0.375000 0.000000
vt 0.625000 0.000000
vt 0.625000 0.250000
vt 0.375000 0.250000
vt 0.375000 0.500000
vt 0.375000 0.398273
vt 0.625000 0.398273
vt 0.625000 0.500000
vt 0.625000 0.351727
vt 0.375000 0.351727
vt 0.625000 0.750000
vt 0.375000 0.750000
vt 0.625000 0.851727
vt 0.375000 0.851727
vt 0.375000 1.000000
vt 0.375000 0.898273
vt 0.625000 0.898273
vt 0.625000 1.000000
vt 0.273273 0.750000
vt 0.250000 0.625000
vt 0.273273 0.500000
vt 0.875000 0.750000
vt 0.773273 0.750000
vt 0.750000 0.625000
vt 0.773273 0.500000
vt 0.875000 0.500000
vt 0.625000 0.351727
vt 0.375000 0.351727
vt 0.375000 0.398273
vt 0.625000 0.398273
vt 0.375000 0.898273
vt 0.625000 0.898273
vt 0.625000 0.851727
vt 0.375000 0.851727
vt 0.273273 0.500000
vt 0.773273 0.500000
vt 0.726727 0.750000
vt 0.726727 0.750000
vt 0.226727 0.750000
vt 0.125000 0.750000
vt 0.125000 0.500000
vt 0.226727 0.750000
vt 0.726727 0.500000
vt 0.226727 0.500000
s 0
f 9/1/1 12/2/1 23/3/1 20/4/1
f 13/5/2 14/6/2 17/7/2 16/8/2
f 20/4/2 23/3/2 22/9/2 19/10/2
f 5/11/3 2/12/3 13/5/3 16/8/3
f 2/12/4 5/11/4 6/13/4 3/14/4
f 9/15/4 8/16/4 11/17/4 12/18/4
f 2/12/5 3/19/5 26/20/5 14/21/5 13/5/5
f 12/22/6 11/23/6 25/24/6 22/25/6 23/26/6
f 1/1/4 4/2/4 10/3/4 7/4/4
f 7/4/1 10/3/1 11/27/1 8/28/1
f 21/5/1 19/29/1 22/30/1 24/8/1
f 18/11/2 15/12/2 21/5/2 24/8/2
f 1/15/3 3/31/3 6/32/3 4/18/3
f 15/12/3 18/11/3 17/33/3 14/34/3
f 14/21/5 26/20/5 19/35/5 21/5/5 15/12/5
f 25/24/6 11/36/6 10/26/6 4/22/6 6/37/6
f 22/25/6 25/24/6 17/38/6 18/11/6 24/8/6
f 26/20/5 3/39/5 1/40/5 7/41/5 8/42/5
f 17/43/6 25/24/6 6/37/6 5/11/6 16/8/6
f 19/44/5 26/20/5 8/42/5 9/40/5 20/41/5
